<svg width="31" height="32" viewBox="0 0 31 32" fill="none" xmlns="http://www.w3.org/2000/svg">
<path d="M0 32L2.17904 23.7827C0.834415 21.3773 0.127875 18.6507 0.129166 15.8547C0.133041 7.11333 7.02407 0 15.4909 0C19.5997 0.00133333 23.4566 1.65333 26.3577 4.65067C29.2575 7.648 30.854 11.632 30.8527 15.8693C30.8488 24.612 23.9578 31.7253 15.4909 31.7253C12.9205 31.724 10.3876 31.0587 8.14394 29.7947L0 32ZM8.52111 26.924C10.6859 28.2507 12.7526 29.0453 15.4858 29.0467C22.5227 29.0467 28.2551 23.1347 28.259 15.8667C28.2616 8.584 22.5563 2.68 15.4961 2.67733C8.45394 2.67733 2.72541 8.58933 2.72283 15.856C2.72154 18.8227 3.5637 21.044 4.97807 23.368L3.6877 28.232L8.52111 26.924ZM23.2293 19.6387C23.1337 19.4733 22.878 19.3747 22.493 19.176C22.1094 18.9773 20.2223 18.0187 19.8697 17.8867C19.5183 17.7547 19.2626 17.688 19.0055 18.0853C18.7498 18.4813 18.0135 19.3747 17.7901 19.6387C17.5666 19.9027 17.3419 19.936 16.9583 19.7373C16.5746 19.5387 15.3372 19.1213 13.8712 17.7707C12.7306 16.72 11.9595 15.4227 11.7361 15.0253C11.5126 14.6293 11.7128 14.4147 11.904 14.2173C12.0771 14.04 12.2876 13.7547 12.4801 13.5227C12.6751 13.2933 12.7384 13.128 12.8676 12.8627C12.9954 12.5987 12.9321 12.3667 12.8353 12.168C12.7384 11.9707 11.9711 10.02 11.6521 9.22667C11.3395 8.45467 11.0231 8.55867 10.788 8.54667L10.0517 8.53333C9.79598 8.53333 9.38006 8.632 9.02873 9.02933C8.6774 9.42667 7.6854 10.384 7.6854 12.3347C7.6854 14.2853 9.06102 16.1693 9.25219 16.4333C9.44464 16.6973 11.9582 20.7 15.8087 22.416C16.7245 22.824 17.44 23.068 17.9968 23.2507C18.9164 23.552 19.7534 23.5093 20.4147 23.408C21.1523 23.2947 22.6855 22.4493 23.0058 21.524C23.3262 20.5973 23.3262 19.804 23.2293 19.6387Z" fill="white"/>
</svg>
