<svg width="35" height="38" viewBox="0 0 35 38" fill="none" xmlns="http://www.w3.org/2000/svg">
<path d="M34.6514 11.4001C34.6514 11.4001 34.3096 8.78018 33.2568 7.62979C31.9238 6.11572 30.4336 6.1083 29.75 6.01924C24.8555 5.6333 17.5068 5.6333 17.5068 5.6333H17.4932C17.4932 5.6333 10.1445 5.6333 5.25 6.01924C4.56641 6.1083 3.07617 6.11572 1.74316 7.62979C0.69043 8.78018 0.355469 11.4001 0.355469 11.4001C0.355469 11.4001 0 14.4802 0 17.5528V20.4325C0 23.5052 0.348633 26.5853 0.348633 26.5853C0.348633 26.5853 0.69043 29.2052 1.73633 30.3556C3.06934 31.8696 4.81934 31.8177 5.59863 31.981C8.40137 32.2704 17.5 32.3595 17.5 32.3595C17.5 32.3595 24.8555 32.3446 29.75 31.9661C30.4336 31.8771 31.9238 31.8696 33.2568 30.3556C34.3096 29.2052 34.6514 26.5853 34.6514 26.5853C34.6514 26.5853 35 23.5126 35 20.4325V17.5528C35 14.4802 34.6514 11.4001 34.6514 11.4001ZM13.8838 23.9282V13.2481L23.3379 18.6067L13.8838 23.9282Z" fill="white"/>
</svg>
